<svg id="Layer_1" data-name="Layer 1" xmlns="http://www.w3.org/2000/svg" viewBox="0 0 945 152.14"><defs><style>.cls-1{fill:#fff;}</style></defs><title>logotype</title><rect class="cls-1" x="796" y="142.14" width="149" height="10"/><path class="cls-1" d="M614,39.94v-.16c-12,1.63-23.81,9.37-24.76,21.37H589v85h23V71.67c1-5.65,3.11-9,7.65-10.42l4.77-.73c.86,0,1.77,0,2.73,0l-.49-.39L632,59.3V40.14H614Z"/><path class="cls-1" d="M150,112.61c0,5.6-2.87,8.72-7.42,10.1l-4.18.43H115.92l-4.34-.43c-4.55-1.38-6.58-4.5-7.58-10.1V39.14H81v84h.08c1,12,12.82,19.54,24.84,21.16l.09-.2v0h42v0l.24.2c12-1.62,24-9.16,25-21.16H173v-84H150Z"/><path class="cls-1" d="M517.38,18.94l-.13,0c-1.61-4.84-7.18-17.88-20.81-18.91V0c-.3,0-.58,0-.87,0s-.57,0-.87,0V.07c-13.63,1-19.2,14.07-20.81,18.91l-.13,0-26,83.71h0L435,143.5l12.77.43s10.06,1.13,13-7c1.17-3.24,2.07-5.84,2.72-7.81h0l.74-2.38c.45-1.4.66-2.11.66-2.11h0L495.57,26l30.68,98.66h0s.21.72.66,2.11l.74,2.38h0c.66,2,1.55,4.57,2.72,7.81,2.94,8.13,13,7,13,7l12.78-.43-12.77-40.84Z"/><path class="cls-1" d="M423.14,22.65,435.53.54,421.78.28S410.89-.35,406.3,7c-1.08,1.72-2,3.24-2.82,4.57l-.23-.13L375.1,61.2l-27.43-49.8-.22.13c-.79-1.33-1.71-2.85-2.77-4.57C340.16-.35,329.44.28,329.44.28L315.91.54l12.2,22.11-.06,0L358,77l-.87-.24s6.23,9.36,6.23,25.36H363v42h23v-42c0-16,7.36-25.58,7.36-25.58l-.85.24L413,40.64h0l10.18-18Z"/><path class="cls-1" d="M277.83,38.92l.17.14v.08H235v-.22c-12,1.62-23.8,9.22-24.75,21.22H210v84h23V70.55c1-5.6,3.12-9.16,7.67-10.54l4.42-.87h22.48l4.59.87c4.55,1.38,6.84,4.94,7.84,10.54v73.6h22v-84h.41C301.46,48.14,289.85,40.54,277.83,38.92Z"/><path class="cls-1" d="M736,39.14H692v-.08l-.21-.14c-12,1.62-24,9.22-25,21.22H667v63h-.17c1,12,12.94,19.54,25,21.16l.21-.2v0h42v0l.12.2c12-1.62,23.92-9.16,24.87-21.16h0V.14H736Zm-7.55,83.57-4.3.43H701.67l-4.21-.43c-4.55-1.38-7.45-4.5-7.45-10.1V70.55c0-5.6,2.91-9.16,7.45-10.54l4.21-.87H736v53.47C735,118.21,733,121.33,728.45,122.72Z"/><path class="cls-1" d="M25,1V.91C13,2.53,1.17,10.14.22,22.14H0v122H23v-81H43v-20H23V32.52c1-5.6,3.1-9,7.65-10.33l4.77-.72c.86,0,1.77,0,2.73,0l-.49-.39L43,20.25V1.14H25Z"/></svg>